<?xml version="1.0" encoding="utf-8"?>
<svg version="1.1" id="Layer_1" xmlns="http://www.w3.org/2000/svg" xmlns:xlink="http://www.w3.org/1999/xlink" x="0px" y="0px"
	 viewBox="0 0 16 16" style="enable-background:new 0 0 16 16;" xml:space="preserve">
<style type="text/css">
	.st0{fill:#00BEC9;}
</style>
<path class="st0" d="M11.3,15.3c0,0.2-0.2,0.4-0.4,0.4c0,0,0,0,0,0h-5c-0.2,0-0.4-0.2-0.4-0.4c0,0,0,0,0,0l0-2.4l-1.6-2.6
	C3.6,9.9,3.6,9.4,3.8,9l4.6-8.5L12.9,9c0.2,0.4,0.2,0.9,0,1.3l-1.6,2.6V15.3z M10.6,12.4l1.5-2.5c0.1-0.1,0.1-0.3,0-0.4l-3.8-7
	l-3.8,7c-0.1,0.1-0.1,0.3,0,0.4l1.5,2.5L10.6,12.4L10.6,12.4z"/>
<path class="st0" d="M6.2,11.5l2.2-4.1l2.2,4.1"/>
</svg>
